<svg xmlns="http://www.w3.org/2000/svg" xmlns:xlink="http://www.w3.org/1999/xlink" width="500" zoomAndPan="magnify" viewBox="0 0 375 374.999991" height="500" preserveAspectRatio="xMidYMid meet" version="1.2"><defs><clipPath id="c78120b431"><path d="M 170 33.0625 L 205 33.0625 L 205 67 L 170 67 Z M 170 33.0625 "/></clipPath><clipPath id="c670cb311b"><path d="M 106.148438 33.0625 L 140 33.0625 L 140 67 L 106.148438 67 Z M 106.148438 33.0625 "/></clipPath><clipPath id="390a3f5a00"><path d="M 234 33.0625 L 268.898438 33.0625 L 268.898438 67 L 234 67 Z M 234 33.0625 "/></clipPath><clipPath id="5870ef90fd"><path d="M 181 55 L 193 55 L 193 73.5625 L 181 73.5625 Z M 181 55 "/></clipPath><clipPath id="57abf614d8"><path d="M 68.847656 205.480469 L 306.144531 205.480469 L 306.144531 284.125 L 68.847656 284.125 Z M 68.847656 205.480469 "/></clipPath><clipPath id="5a4b4df31c"><path d="M 68.78125 205.480469 L 227 205.480469 L 227 269 L 68.78125 269 Z M 68.78125 205.480469 "/></clipPath><clipPath id="73a2e9f1b7"><path d="M 100 94 L 275 94 L 275 197.117188 L 100 197.117188 Z M 100 94 "/></clipPath><clipPath id="12e3d35cda"><path d="M 66.28125 170 L 89 170 L 89 194 L 66.28125 194 Z M 66.28125 170 "/></clipPath><clipPath id="6437f28230"><path d="M 175 60.617188 L 199 60.617188 L 199 83 L 175 83 Z M 175 60.617188 "/></clipPath><clipPath id="76b003b952"><path d="M 286 170 L 308.53125 170 L 308.53125 194 L 286 194 Z M 286 170 "/></clipPath><clipPath id="3ab0dcc98d"><path d="M 75 205.480469 L 292.617188 205.480469 L 292.617188 215.617188 L 75 215.617188 Z M 75 205.480469 "/></clipPath><clipPath id="883da0319f"><path d="M 110.523438 215.652344 L 264.273438 215.652344 L 264.273438 275.617188 L 110.523438 275.617188 Z M 110.523438 215.652344 "/></clipPath><clipPath id="5eceef5eb1"><path d="M 181.015625 213.925781 L 193.734375 213.925781 L 193.734375 277.351562 L 181.015625 277.351562 Z M 181.015625 213.925781 "/></clipPath><clipPath id="80cbaeae9d"><path d="M 224.484375 213.925781 L 238.988281 213.925781 L 238.988281 269.328125 L 224.484375 269.328125 Z M 224.484375 213.925781 "/></clipPath><clipPath id="bb35c40c38"><path d="M 137.671875 210.546875 L 150.390625 210.546875 L 150.390625 273.976562 L 137.671875 273.976562 Z M 137.671875 210.546875 "/></clipPath></defs><g id="4ac1a7f1f5"><rect x="0" width="375" y="0" height="374.999991" style="fill:#ffffff;fill-opacity:1;stroke:none;"/><rect x="0" width="375" y="0" height="374.999991" style="fill:#1e354d;fill-opacity:1;stroke:none;"/><g clip-rule="nonzero" clip-path="url(#c78120b431)"><path style=" stroke:none;fill-rule:evenodd;fill:#f2dea2;fill-opacity:1;" d="M 187.0625 44.074219 C 183.933594 44.074219 181.390625 46.613281 181.390625 49.746094 C 181.390625 52.878906 183.933594 55.417969 187.0625 55.417969 C 190.195312 55.417969 192.734375 52.878906 192.734375 49.746094 C 192.734375 46.613281 190.195312 44.074219 187.0625 44.074219 Z M 170.046875 49.746094 C 170.046875 40.347656 177.667969 32.730469 187.0625 32.730469 C 196.460938 32.730469 204.078125 40.347656 204.078125 49.746094 C 204.078125 59.144531 196.460938 66.761719 187.0625 66.761719 C 177.667969 66.761719 170.046875 59.144531 170.046875 49.746094 Z M 170.046875 49.746094 "/></g><g clip-rule="nonzero" clip-path="url(#c670cb311b)"><path style=" stroke:none;fill-rule:evenodd;fill:#f2dea2;fill-opacity:1;" d="M 122.785156 44.074219 C 119.652344 44.074219 117.113281 46.613281 117.113281 49.746094 C 117.113281 52.878906 119.652344 55.417969 122.785156 55.417969 C 125.917969 55.417969 128.457031 52.878906 128.457031 49.746094 C 128.457031 46.613281 125.917969 44.074219 122.785156 44.074219 Z M 105.769531 49.746094 C 105.769531 40.347656 113.386719 32.730469 122.785156 32.730469 C 132.179688 32.730469 139.800781 40.347656 139.800781 49.746094 C 139.800781 59.144531 132.179688 66.761719 122.785156 66.761719 C 113.386719 66.761719 105.769531 59.144531 105.769531 49.746094 Z M 105.769531 49.746094 "/></g><g clip-rule="nonzero" clip-path="url(#390a3f5a00)"><path style=" stroke:none;fill-rule:evenodd;fill:#f2dea2;fill-opacity:1;" d="M 251.34375 44.074219 C 248.210938 44.074219 245.671875 46.613281 245.671875 49.746094 C 245.671875 52.878906 248.210938 55.417969 251.34375 55.417969 C 254.476562 55.417969 257.015625 52.878906 257.015625 49.746094 C 257.015625 46.613281 254.476562 44.074219 251.34375 44.074219 Z M 234.328125 49.746094 C 234.328125 40.347656 241.949219 32.730469 251.34375 32.730469 C 260.742188 32.730469 268.359375 40.347656 268.359375 49.746094 C 268.359375 59.144531 260.742188 66.761719 251.34375 66.761719 C 241.949219 66.761719 234.328125 59.144531 234.328125 49.746094 Z M 234.328125 49.746094 "/></g><g clip-rule="nonzero" clip-path="url(#5870ef90fd)"><path style=" stroke:none;fill-rule:evenodd;fill:#f2dea2;fill-opacity:1;" d="M 187.0625 55.417969 C 190.195312 55.417969 192.734375 57.957031 192.734375 61.089844 L 192.734375 79.996094 C 192.734375 83.128906 190.195312 85.667969 187.0625 85.667969 C 183.933594 85.667969 181.390625 83.128906 181.390625 79.996094 L 181.390625 61.089844 C 181.390625 57.957031 183.933594 55.417969 187.0625 55.417969 Z M 187.0625 55.417969 "/></g><path style=" stroke:none;fill-rule:evenodd;fill:#f2dea2;fill-opacity:1;" d="M 192.734375 49.746094 C 192.734375 46.613281 195.273438 44.074219 198.40625 44.074219 L 240 44.074219 C 243.132812 44.074219 245.671875 46.613281 245.671875 49.746094 C 245.671875 52.878906 243.132812 55.417969 240 55.417969 L 198.40625 55.417969 C 195.273438 55.417969 192.734375 52.878906 192.734375 49.746094 Z M 192.734375 49.746094 "/><path style=" stroke:none;fill-rule:evenodd;fill:#f2dea2;fill-opacity:1;" d="M 128.457031 49.746094 C 128.457031 46.613281 130.996094 44.074219 134.128906 44.074219 L 175.71875 44.074219 C 178.851562 44.074219 181.390625 46.613281 181.390625 49.746094 C 181.390625 52.878906 178.851562 55.417969 175.71875 55.417969 L 134.128906 55.417969 C 130.996094 55.417969 128.457031 52.878906 128.457031 49.746094 Z M 128.457031 49.746094 "/><g clip-rule="nonzero" clip-path="url(#57abf614d8)"><path style=" stroke:none;fill-rule:nonzero;fill:#bae4ff;fill-opacity:1;" d="M 278.554688 246.40625 C 266.734375 258.226562 252.964844 267.507812 237.628906 273.996094 C 221.738281 280.714844 204.871094 284.125 187.496094 284.125 C 170.121094 284.125 153.253906 280.714844 137.363281 273.996094 C 122.027344 267.507812 108.257812 258.226562 96.4375 246.40625 C 84.617188 234.585938 75.335938 220.816406 68.847656 205.480469 L 114.027344 205.480469 C 130.066406 228.914062 157.015625 244.324219 187.496094 244.324219 C 201.570312 244.324219 214.886719 241.035156 226.730469 235.195312 L 226.730469 205.480469 L 238.363281 205.480469 L 238.363281 228.308594 C 247.203125 222.125 254.875 214.382812 260.96875 205.480469 L 306.144531 205.480469 C 299.660156 220.816406 290.375 234.585938 278.554688 246.40625 "/></g><g clip-rule="nonzero" clip-path="url(#5a4b4df31c)"><path style=" stroke:none;fill-rule:nonzero;fill:#bae4ff;fill-opacity:1;" d="M 226.730469 247.042969 C 212.832031 257.28125 194.128906 265.890625 169.613281 267.804688 C 149.039062 269.410156 115.699219 263.925781 96.4375 246.40625 C 84.617188 234.585938 75.335938 220.816406 68.847656 205.480469 L 114.027344 205.480469 C 122.660156 218.09375 134.457031 228.382812 148.265625 235.195312 L 148.265625 205.480469 L 159.902344 205.480469 L 159.902344 239.941406 C 168.59375 242.785156 177.867188 244.324219 187.496094 244.324219 L 187.496094 205.480469 L 199.132812 205.480469 L 199.132812 243.5625 C 208.917969 242.28125 218.207031 239.398438 226.730469 235.195312 L 226.730469 247.042969 "/></g><g clip-rule="nonzero" clip-path="url(#73a2e9f1b7)"><path style=" stroke:none;fill-rule:evenodd;fill:#f2dea2;fill-opacity:1;" d="M 271.050781 206.992188 L 103.765625 206.992188 C 101.304688 198.820312 100.054688 190.335938 100.054688 181.800781 C 100.054688 133.589844 139.195312 94.449219 187.40625 94.449219 C 235.617188 94.449219 274.757812 133.589844 274.757812 181.800781 C 274.757812 190.335938 273.507812 198.820312 271.050781 206.992188 Z M 271.050781 206.992188 "/></g><g clip-rule="nonzero" clip-path="url(#12e3d35cda)"><path style=" stroke:none;fill-rule:evenodd;fill:#f2dea2;fill-opacity:1;" d="M 66.285156 181.800781 L 88.578125 170.285156 L 88.578125 193.320312 Z M 66.285156 181.800781 "/></g><path style=" stroke:none;fill-rule:evenodd;fill:#f2dea2;fill-opacity:1;" d="M 82.511719 121.238281 L 107.578125 122.414062 L 96.0625 142.363281 Z M 82.511719 121.238281 "/><path style=" stroke:none;fill-rule:evenodd;fill:#f2dea2;fill-opacity:1;" d="M 126.84375 76.90625 L 147.96875 90.453125 L 128.019531 101.972656 Z M 126.84375 76.90625 "/><g clip-rule="nonzero" clip-path="url(#6437f28230)"><path style=" stroke:none;fill-rule:evenodd;fill:#f2dea2;fill-opacity:1;" d="M 187.410156 60.679688 L 198.925781 82.972656 L 175.890625 82.972656 Z M 187.410156 60.679688 "/></g><path style=" stroke:none;fill-rule:evenodd;fill:#f2dea2;fill-opacity:1;" d="M 247.96875 76.90625 L 246.796875 101.972656 L 226.847656 90.457031 Z M 247.96875 76.90625 "/><path style=" stroke:none;fill-rule:evenodd;fill:#f2dea2;fill-opacity:1;" d="M 292.304688 121.238281 L 278.753906 142.359375 L 267.238281 122.414062 Z M 292.304688 121.238281 "/><g clip-rule="nonzero" clip-path="url(#76b003b952)"><path style=" stroke:none;fill-rule:evenodd;fill:#f2dea2;fill-opacity:1;" d="M 308.53125 181.800781 L 286.234375 193.320312 L 286.234375 170.285156 Z M 308.53125 181.800781 "/></g><g clip-rule="nonzero" clip-path="url(#3ab0dcc98d)"><path style=" stroke:none;fill-rule:nonzero;fill:#bae4ff;fill-opacity:1;" d="M 75 205.480469 L 292.636719 205.480469 L 292.636719 215.617188 L 75 215.617188 Z M 75 205.480469 "/></g><g clip-rule="nonzero" clip-path="url(#883da0319f)"><path style=" stroke:none;fill-rule:nonzero;fill:#1e354d;fill-opacity:1;" d="M 187.394531 275.648438 C 150.285156 275.648438 119.136719 250.136719 110.523438 215.699219 L 264.261719 215.699219 C 255.648438 250.136719 224.5 275.648438 187.394531 275.648438 Z M 187.394531 275.648438 "/></g><g clip-rule="nonzero" clip-path="url(#5eceef5eb1)"><path style=" stroke:none;fill-rule:nonzero;fill:#bae4ff;fill-opacity:1;" d="M 181.015625 213.925781 L 193.734375 213.925781 L 193.734375 277.367188 L 181.015625 277.367188 Z M 181.015625 213.925781 "/></g><g clip-rule="nonzero" clip-path="url(#80cbaeae9d)"><path style=" stroke:none;fill-rule:nonzero;fill:#bae4ff;fill-opacity:1;" d="M 224.484375 213.925781 L 238.988281 213.925781 L 238.988281 269.335938 L 224.484375 269.335938 Z M 224.484375 213.925781 "/></g><g clip-rule="nonzero" clip-path="url(#bb35c40c38)"><path style=" stroke:none;fill-rule:nonzero;fill:#bae4ff;fill-opacity:1;" d="M 137.671875 210.546875 L 150.390625 210.546875 L 150.390625 273.988281 L 137.671875 273.988281 Z M 137.671875 210.546875 "/></g><g style="fill:#f2dea2;fill-opacity:1;"><g transform="translate(115.482419, 324.99997)"><path style="stroke:none" d="M 24.28125 -0.15625 C 23.988281 -0.0820312 23.523438 -0.00390625 22.890625 0.078125 C 22.265625 0.160156 21.648438 0.203125 21.046875 0.203125 C 20.429688 0.203125 19.890625 0.15625 19.421875 0.0625 C 18.953125 -0.03125 18.554688 -0.195312 18.234375 -0.4375 C 17.921875 -0.675781 17.679688 -1.007812 17.515625 -1.4375 C 17.359375 -1.863281 17.28125 -2.425781 17.28125 -3.125 L 17.28125 -9.359375 L 9.59375 -9.359375 L 9.59375 -0.15625 C 9.300781 -0.0820312 8.84375 -0.00390625 8.21875 0.078125 C 7.59375 0.160156 6.972656 0.203125 6.359375 0.203125 C 5.742188 0.203125 5.203125 0.15625 4.734375 0.0625 C 4.273438 -0.03125 3.882812 -0.195312 3.5625 -0.4375 C 3.238281 -0.675781 2.992188 -1.007812 2.828125 -1.4375 C 2.671875 -1.863281 2.59375 -2.425781 2.59375 -3.125 L 2.59375 -24.234375 C 2.894531 -24.285156 3.363281 -24.359375 4 -24.453125 C 4.632812 -24.546875 5.25 -24.59375 5.84375 -24.59375 C 6.457031 -24.59375 6.992188 -24.546875 7.453125 -24.453125 C 7.921875 -24.359375 8.316406 -24.191406 8.640625 -23.953125 C 8.960938 -23.710938 9.203125 -23.378906 9.359375 -22.953125 C 9.515625 -22.523438 9.59375 -21.96875 9.59375 -21.28125 L 9.59375 -14.875 L 17.28125 -14.875 L 17.28125 -24.234375 C 17.570312 -24.285156 18.035156 -24.359375 18.671875 -24.453125 C 19.316406 -24.546875 19.929688 -24.59375 20.515625 -24.59375 C 21.128906 -24.59375 21.671875 -24.546875 22.140625 -24.453125 C 22.609375 -24.359375 23 -24.191406 23.3125 -23.953125 C 23.632812 -23.710938 23.875 -23.378906 24.03125 -22.953125 C 24.195312 -22.523438 24.28125 -21.96875 24.28125 -21.28125 Z M 24.28125 -0.15625 "/></g></g><g style="fill:#f2dea2;fill-opacity:1;"><g transform="translate(142.359748, 324.99997)"><path style="stroke:none" d="M 22.203125 -9.71875 C 22.203125 -8.0625 21.945312 -6.585938 21.4375 -5.296875 C 20.9375 -4.003906 20.222656 -2.914062 19.296875 -2.03125 C 18.378906 -1.15625 17.28125 -0.488281 16 -0.03125 C 14.71875 0.414062 13.289062 0.640625 11.71875 0.640625 C 10.144531 0.640625 8.71875 0.398438 7.4375 -0.078125 C 6.15625 -0.554688 5.054688 -1.242188 4.140625 -2.140625 C 3.222656 -3.035156 2.507812 -4.117188 2 -5.390625 C 1.488281 -6.671875 1.234375 -8.113281 1.234375 -9.71875 C 1.234375 -11.289062 1.488281 -12.71875 2 -14 C 2.507812 -15.28125 3.222656 -16.363281 4.140625 -17.25 C 5.054688 -18.144531 6.15625 -18.832031 7.4375 -19.3125 C 8.71875 -19.800781 10.144531 -20.046875 11.71875 -20.046875 C 13.289062 -20.046875 14.71875 -19.796875 16 -19.296875 C 17.28125 -18.804688 18.378906 -18.113281 19.296875 -17.21875 C 20.222656 -16.320312 20.9375 -15.234375 21.4375 -13.953125 C 21.945312 -12.679688 22.203125 -11.269531 22.203125 -9.71875 Z M 8.203125 -9.71875 C 8.203125 -8.09375 8.515625 -6.847656 9.140625 -5.984375 C 9.765625 -5.117188 10.640625 -4.6875 11.765625 -4.6875 C 12.878906 -4.6875 13.734375 -5.125 14.328125 -6 C 14.929688 -6.875 15.234375 -8.113281 15.234375 -9.71875 C 15.234375 -11.320312 14.925781 -12.554688 14.3125 -13.421875 C 13.707031 -14.285156 12.84375 -14.71875 11.71875 -14.71875 C 10.601562 -14.71875 9.738281 -14.285156 9.125 -13.421875 C 8.507812 -12.554688 8.203125 -11.320312 8.203125 -9.71875 Z M 8.203125 -9.71875 "/></g></g><g style="fill:#f2dea2;fill-opacity:1;"><g transform="translate(165.797419, 324.99997)"><path style="stroke:none" d="M 8.875 -0.046875 C 8.613281 0.0351562 8.195312 0.113281 7.625 0.1875 C 7.050781 0.269531 6.457031 0.3125 5.84375 0.3125 C 5.25 0.3125 4.71875 0.269531 4.25 0.1875 C 3.789062 0.113281 3.398438 -0.0390625 3.078125 -0.28125 C 2.753906 -0.519531 2.503906 -0.84375 2.328125 -1.25 C 2.160156 -1.664062 2.078125 -2.207031 2.078125 -2.875 L 2.078125 -14.875 C 2.078125 -15.488281 2.191406 -16.015625 2.421875 -16.453125 C 2.648438 -16.898438 2.976562 -17.296875 3.40625 -17.640625 C 3.832031 -17.984375 4.359375 -18.296875 4.984375 -18.578125 C 5.609375 -18.859375 6.28125 -19.101562 7 -19.3125 C 7.71875 -19.53125 8.460938 -19.695312 9.234375 -19.8125 C 10.015625 -19.9375 10.789062 -20 11.5625 -20 C 12.84375 -20 13.851562 -19.75 14.59375 -19.25 C 15.34375 -18.757812 15.71875 -17.957031 15.71875 -16.84375 C 15.71875 -16.46875 15.664062 -16.097656 15.5625 -15.734375 C 15.457031 -15.378906 15.320312 -15.054688 15.15625 -14.765625 C 14.59375 -14.765625 14.019531 -14.734375 13.4375 -14.671875 C 12.851562 -14.617188 12.28125 -14.539062 11.71875 -14.4375 C 11.15625 -14.332031 10.628906 -14.21875 10.140625 -14.09375 C 9.648438 -13.976562 9.226562 -13.84375 8.875 -13.6875 Z M 8.875 -0.046875 "/></g></g><g style="fill:#f2dea2;fill-opacity:1;"><g transform="translate(182.235779, 324.99997)"><path style="stroke:none" d="M 1.921875 -24.84375 C 1.921875 -25.851562 2.257812 -26.703125 2.9375 -27.390625 C 3.613281 -28.085938 4.515625 -28.4375 5.640625 -28.4375 C 6.753906 -28.4375 7.648438 -28.085938 8.328125 -27.390625 C 9.015625 -26.703125 9.359375 -25.851562 9.359375 -24.84375 C 9.359375 -23.820312 9.015625 -22.960938 8.328125 -22.265625 C 7.648438 -21.578125 6.753906 -21.234375 5.640625 -21.234375 C 4.515625 -21.234375 3.613281 -21.578125 2.9375 -22.265625 C 2.257812 -22.960938 1.921875 -23.820312 1.921875 -24.84375 Z M 9.046875 -0.046875 C 8.742188 0.015625 8.304688 0.0859375 7.734375 0.171875 C 7.160156 0.265625 6.582031 0.3125 6 0.3125 C 5.414062 0.3125 4.890625 0.269531 4.421875 0.1875 C 3.953125 0.113281 3.554688 -0.0390625 3.234375 -0.28125 C 2.921875 -0.519531 2.675781 -0.84375 2.5 -1.25 C 2.320312 -1.664062 2.234375 -2.207031 2.234375 -2.875 L 2.234375 -19.15625 C 2.535156 -19.207031 2.972656 -19.28125 3.546875 -19.375 C 4.117188 -19.46875 4.695312 -19.515625 5.28125 -19.515625 C 5.863281 -19.515625 6.390625 -19.472656 6.859375 -19.390625 C 7.328125 -19.316406 7.71875 -19.160156 8.03125 -18.921875 C 8.351562 -18.679688 8.601562 -18.351562 8.78125 -17.9375 C 8.957031 -17.519531 9.046875 -16.976562 9.046875 -16.3125 Z M 9.046875 -0.046875 "/></g></g><g style="fill:#f2dea2;fill-opacity:1;"><g transform="translate(193.514664, 324.99997)"><path style="stroke:none" d="M 2.765625 0 C 2.335938 -0.375 1.992188 -0.8125 1.734375 -1.3125 C 1.484375 -1.820312 1.359375 -2.398438 1.359375 -3.046875 C 1.359375 -3.578125 1.484375 -4.101562 1.734375 -4.625 C 1.992188 -5.144531 2.3125 -5.628906 2.6875 -6.078125 L 9.5625 -14.15625 L 2.203125 -14.15625 C 2.035156 -14.445312 1.878906 -14.816406 1.734375 -15.265625 C 1.585938 -15.722656 1.515625 -16.222656 1.515625 -16.765625 C 1.515625 -17.691406 1.722656 -18.363281 2.140625 -18.78125 C 2.554688 -19.195312 3.109375 -19.40625 3.796875 -19.40625 L 16.40625 -19.40625 C 16.832031 -19.03125 17.171875 -18.585938 17.421875 -18.078125 C 17.671875 -17.566406 17.796875 -16.992188 17.796875 -16.359375 C 17.796875 -15.828125 17.671875 -15.300781 17.421875 -14.78125 C 17.171875 -14.257812 16.859375 -13.769531 16.484375 -13.3125 L 9.765625 -5.234375 L 17.59375 -5.234375 C 17.757812 -4.941406 17.914062 -4.566406 18.0625 -4.109375 C 18.207031 -3.660156 18.28125 -3.171875 18.28125 -2.640625 C 18.28125 -1.703125 18.070312 -1.023438 17.65625 -0.609375 C 17.25 -0.203125 16.695312 0 16 0 Z M 2.765625 0 "/></g></g><g style="fill:#f2dea2;fill-opacity:1;"><g transform="translate(212.752753, 324.99997)"><path style="stroke:none" d="M 22.203125 -9.71875 C 22.203125 -8.0625 21.945312 -6.585938 21.4375 -5.296875 C 20.9375 -4.003906 20.222656 -2.914062 19.296875 -2.03125 C 18.378906 -1.15625 17.28125 -0.488281 16 -0.03125 C 14.71875 0.414062 13.289062 0.640625 11.71875 0.640625 C 10.144531 0.640625 8.71875 0.398438 7.4375 -0.078125 C 6.15625 -0.554688 5.054688 -1.242188 4.140625 -2.140625 C 3.222656 -3.035156 2.507812 -4.117188 2 -5.390625 C 1.488281 -6.671875 1.234375 -8.113281 1.234375 -9.71875 C 1.234375 -11.289062 1.488281 -12.71875 2 -14 C 2.507812 -15.28125 3.222656 -16.363281 4.140625 -17.25 C 5.054688 -18.144531 6.15625 -18.832031 7.4375 -19.3125 C 8.71875 -19.800781 10.144531 -20.046875 11.71875 -20.046875 C 13.289062 -20.046875 14.71875 -19.796875 16 -19.296875 C 17.28125 -18.804688 18.378906 -18.113281 19.296875 -17.21875 C 20.222656 -16.320312 20.9375 -15.234375 21.4375 -13.953125 C 21.945312 -12.679688 22.203125 -11.269531 22.203125 -9.71875 Z M 8.203125 -9.71875 C 8.203125 -8.09375 8.515625 -6.847656 9.140625 -5.984375 C 9.765625 -5.117188 10.640625 -4.6875 11.765625 -4.6875 C 12.878906 -4.6875 13.734375 -5.125 14.328125 -6 C 14.929688 -6.875 15.234375 -8.113281 15.234375 -9.71875 C 15.234375 -11.320312 14.925781 -12.554688 14.3125 -13.421875 C 13.707031 -14.285156 12.84375 -14.71875 11.71875 -14.71875 C 10.601562 -14.71875 9.738281 -14.285156 9.125 -13.421875 C 8.507812 -12.554688 8.203125 -11.320312 8.203125 -9.71875 Z M 8.203125 -9.71875 "/></g></g><g style="fill:#f2dea2;fill-opacity:1;"><g transform="translate(236.190423, 324.99997)"><path style="stroke:none" d="M 14.40625 -12.3125 C 14.40625 -13.144531 14.171875 -13.753906 13.703125 -14.140625 C 13.234375 -14.523438 12.597656 -14.71875 11.796875 -14.71875 C 11.265625 -14.71875 10.738281 -14.648438 10.21875 -14.515625 C 9.695312 -14.378906 9.25 -14.179688 8.875 -13.921875 L 8.875 -0.046875 C 8.613281 0.0351562 8.195312 0.113281 7.625 0.1875 C 7.050781 0.269531 6.457031 0.3125 5.84375 0.3125 C 5.25 0.3125 4.71875 0.269531 4.25 0.1875 C 3.789062 0.113281 3.398438 -0.0390625 3.078125 -0.28125 C 2.753906 -0.519531 2.503906 -0.84375 2.328125 -1.25 C 2.160156 -1.664062 2.078125 -2.207031 2.078125 -2.875 L 2.078125 -14.875 C 2.078125 -15.59375 2.226562 -16.175781 2.53125 -16.625 C 2.84375 -17.082031 3.265625 -17.5 3.796875 -17.875 C 4.703125 -18.519531 5.84375 -19.039062 7.21875 -19.4375 C 8.59375 -19.84375 10.117188 -20.046875 11.796875 -20.046875 C 14.804688 -20.046875 17.125 -19.382812 18.75 -18.0625 C 20.382812 -16.738281 21.203125 -14.90625 21.203125 -12.5625 L 21.203125 -0.046875 C 20.929688 0.0351562 20.507812 0.113281 19.9375 0.1875 C 19.363281 0.269531 18.769531 0.3125 18.15625 0.3125 C 17.570312 0.3125 17.046875 0.269531 16.578125 0.1875 C 16.109375 0.113281 15.710938 -0.0390625 15.390625 -0.28125 C 15.078125 -0.519531 14.832031 -0.84375 14.65625 -1.25 C 14.488281 -1.664062 14.40625 -2.207031 14.40625 -2.875 Z M 14.40625 -12.3125 "/></g></g></g></svg>